<?xml version="1.0" standalone="no"?>
<!DOCTYPE svg PUBLIC "-//W3C//DTD SVG 20010904//EN"
 "http://www.w3.org/TR/2001/REC-SVG-20010904/DTD/svg10.dtd">
<svg version="1.0" xmlns="http://www.w3.org/2000/svg"
 width="377.000000pt" height="458.000000pt" viewBox="0 0 377.000000 458.000000"
 preserveAspectRatio="xMidYMid meet">
<metadata>
Created by potrace 1.16, written by Peter Selinger 2001-2019
</metadata>
<g transform="translate(0.000000,458.000000) scale(0.100000,-0.100000)"
fill="#000000" stroke="none">
<path d="M800 3506 l0 -606 -175 0 -175 0 0 -140 0 -140 175 0 175 0 0 -260 0
-260 -175 0 -175 0 0 -140 0 -140 175 0 175 0 0 -606 0 -605 533 3 532 4 97
26 c358 97 625 335 807 719 145 306 209 612 218 1044 7 335 -17 537 -93 764
-169 510 -486 815 -954 917 -63 14 -162 18 -607 21 l-533 4 0 -605z m1054 234
c276 -70 477 -285 594 -635 69 -204 86 -335 86 -645 -1 -219 -5 -290 -23 -410
-51 -341 -147 -605 -288 -795 -76 -103 -152 -170 -252 -223 -117 -63 -181 -72
-493 -72 l-260 0 6 98 c3 53 9 247 12 430 l7 332 423 0 424 0 0 140 0 140
-425 0 -425 0 0 260 0 260 425 0 425 0 0 140 0 140 -420 0 -420 0 0 168 c0 92
-7 262 -15 377 -8 116 -15 234 -15 263 l0 52 278 0 c245 0 288 -2 356 -20z"/>
</g>
</svg>
