<?xml version="1.0" standalone="no"?>
<!DOCTYPE svg PUBLIC "-//W3C//DTD SVG 20010904//EN"
 "http://www.w3.org/TR/2001/REC-SVG-20010904/DTD/svg10.dtd">
<svg version="1.0" xmlns="http://www.w3.org/2000/svg"
 width="1132.000000pt" height="1203.000000pt" viewBox="0 0 1132.000000 1203.000000"
 preserveAspectRatio="xMidYMid meet">
<metadata>
Created by potrace 1.16, written by Peter Selinger 2001-2019
</metadata>
<g transform="translate(0.000000,1203.000000) scale(0.100000,-0.100000)"
fill="#000000" stroke="none">
<path d="M3120 9135 l0 -1515 -430 0 -430 0 0 -350 0 -350 430 0 430 0 0 -650
0 -650 -430 0 -430 0 0 -350 0 -350 430 0 430 0 0 -1510 0 -1510 1194 0 c1225
0 1303 2 1545 41 417 66 871 272 1229 556 116 92 362 335 459 453 507 620 850
1475 993 2478 64 452 86 825 77 1302 -11 529 -66 938 -186 1377 -284 1035
-878 1823 -1676 2223 -360 180 -685 269 -1135 310 -71 6 -567 10 -1307 10
l-1193 0 0 -1515z m2346 635 c443 -27 801 -185 1123 -495 447 -430 748 -1121
850 -1952 37 -302 44 -451 38 -869 -8 -598 -52 -1003 -162 -1495 -222 -995
-682 -1726 -1271 -2023 -100 -51 -263 -108 -374 -131 -127 -27 -337 -35 -927
-35 l-573 0 6 58 c2 31 20 306 39 611 31 497 35 602 35 1018 l0 463 1055 0
1055 0 0 350 0 350 -1055 0 -1055 0 0 650 0 650 1055 0 1055 0 0 350 0 350
-1055 0 -1055 0 0 465 c0 417 -4 523 -35 1023 -19 306 -37 583 -39 615 l-6 57
573 0 c314 0 640 -5 723 -10z"/>
</g>
</svg>
